<mxfile host="app.diagrams.net" modified="2024-02-28T05:52:07.149Z" agent="Mozilla/5.0 (Macintosh; Intel Mac OS X 10_15_7) AppleWebKit/537.36 (KHTML, like Gecko) Chrome/121.0.0.0 Safari/537.36" version="21.6.9" etag="JH-IW29qaNW73Ea4f8v-" type="github">
  <diagram name="Page-1" id="xypCsUsZ06hHP_8gI4rB">
    <mxGraphModel>
      <root>
        <mxCell id="0" />
        <mxCell id="1" parent="0" />
      </root>
    </mxGraphModel>
  </diagram>
</mxfile>
